<?xml version="1.0" encoding="utf-8"?>
<!-- Generator: Adobe Illustrator 27.5.0, SVG Export Plug-In . SVG Version: 6.00 Build 0)  -->
<svg version="1.1" xmlns="http://www.w3.org/2000/svg" xmlns:xlink="http://www.w3.org/1999/xlink" x="0px" y="0px"
	 viewBox="0 0 750 500" style="enable-background:new 0 0 750 500;" xml:space="preserve">
<g id="BACKGROUND">
	<rect x="-0.001" style="fill:#F3E7C8;" width="750" height="500"/>
</g>
<g id="OBJECTS">
	<g>
		<defs>
			<rect id="SVGID_1_" x="-0.001" width="750" height="500"/>
		</defs>
		<clipPath id="SVGID_00000091006930902669373000000016753142845862599350_">
			<use xlink:href="#SVGID_1_"  style="overflow:visible;"/>
		</clipPath>
		<g style="clip-path:url(#SVGID_00000091006930902669373000000016753142845862599350_);">
			<path style="fill:#FFFFFF;" d="M63.581,156.154h347.655l-140.603-7.071c0,0-14.426-42.429-62.795-24.609
				c5.091-26.306-29.221-20.446-29.221-20.446s-9.772-33.919-43.756-8.802C112.799,80.348,76.31,104.957,94.13,138.9
				C72.11,139.748,63.581,156.154,63.581,156.154z"/>
			<path style="fill:#FFFFFF;" d="M646.694,219.557h-358.22c0,0,76.9-13.971,126.545-6.986
				c-8.761-31.047,36.017-28.718,37.964-6.985c23.362-26.39,81.768-20.995,87.608-1.184
				C563.953,189.287,626.252,196.272,646.694,219.557z"/>
			<path style="fill:#FFFFFF;" d="M295.032,200.308H203.68c0,0,10.232-10.587,26.184-5.293c5.311-19.561,33.909-17.988,31.581-1.482
				C281.731,190.085,295.032,200.308,295.032,200.308z"/>
			<path style="fill:#FFFFFF;" d="M386.445,61.113h-129.11c0,0,12.795-7.655,51.056-4.504c1.576-24.982,50.414-23.312,43.212-4.004
				c13.054-1.848,15.529,4.679,15.529,4.679S386.853,54.364,386.445,61.113z"/>
			<polyline style="fill:#FFFFFF;" points="209.93,276.003 583.2,287.711 245.788,293.357 509.018,300.925 219.188,311.841 			"/>
			<polyline style="fill:#FFFFFF;" points="126.185,249.737 650.907,248.422 600.314,256.456 141.278,256.456 			"/>
		</g>
		<g style="clip-path:url(#SVGID_00000091006930902669373000000016753142845862599350_);">
			<path style="fill:#DDBB64;" d="M787.739,520.05l-812.73,6.77l8.77-338.66l0.9-34.56l58.17,43.34l33.92-22.28l12.49,31.07
				l111.88,68.36l22.61-5.32l179.57,51.88l91.45-57.2l21.62,11.97l42.56-17.08c0,0,34.59-25.48,38.58-60.07
				c3.99-34.58,0-61.18,0-61.18h19.95c0,0,116.88,37.1,158.29,97.1c10.17,14.74,16.07,39.49,19.17,68.44
				C804.489,391.53,787.739,520.05,787.739,520.05z"/>
			<path style="fill:#E9D299;" d="M92.729,227.54l-18.96-1L92.729,250c0,0-76.86-43.88-108.95-61.84l0.9-34.56l58.17,43.34
				l33.92-22.28l12.49,31.07l111.88,68.36L92.729,227.54z"/>
			<polygon style="fill:#E9D299;" points="135.625,274.09 142.609,287.395 257.335,315.329 			"/>
			<polygon style="fill:#E9D299;" points="223.749,268.77 223.749,278.417 311.207,309.343 291.254,315.329 352.109,324.307 
				274.295,355.234 403.319,320.65 			"/>
			<polygon style="fill:#E9D299;" points="494.769,263.452 485.791,289.391 463.843,304.355 475.279,325.305 357.097,364.212 
				512.727,331.955 503.748,321.315 596.527,288.393 540.66,281.41 558.949,258.34 516.389,275.42 			"/>
			<polygon style="fill:#F3E7C8;" points="516.648,277.894 506.567,288.284 532.839,281.731 548.905,265.854 			"/>
			<path style="fill:#E9D299;" d="M794.939,302.63c-3.54,50.35-8.12,79.61-13.55,35.57c-13.39-108.58-99.07-156.55-99.07-156.55
				l-75.82,56.86l23.95-73.82h-21.45l11.47-11.09l-22.94-16.51h19.95c0,0,116.88,37.1,158.29,97.1
				C785.939,248.93,791.839,273.68,794.939,302.63z"/>
			<polygon style="fill:#E9D299;" points="681.325,203.595 696.234,222.433 626.456,248.422 			"/>
			<polygon style="fill:#E9D299;" points="179.515,311.276 179.515,321.315 227.406,321.315 			"/>
			<polygon style="fill:#E9D299;" points="-24.991,209.581 92.459,283.405 -30.978,258.34 			"/>
		</g>
		<g style="clip-path:url(#SVGID_00000091006930902669373000000016753142845862599350_);">
			<polygon style="fill:#BF8D2B;" points="-40.954,315.995 35.863,289.389 58.808,305.956 70.78,302.692 209.455,368.798 
				233.392,358.892 313.534,393.143 590.541,326.635 645.411,337.276 802.037,268.77 797.882,525.495 -40.954,535.472 			"/>
			<polygon style="opacity:0.3;fill:#8B326B;" points="60.803,313.304 178.014,367.699 165.859,372.251 			"/>
			<polyline style="fill:#BF8D2B;" points="270.476,382.565 271.931,366.768 278.481,368.223 293.764,392.24 			"/>
			<polygon style="opacity:0.3;fill:#8B326B;" points="420.397,386.781 426.114,394.14 532.839,355.234 			"/>
			<polyline style="opacity:0.3;fill:#8B326B;" points="426.114,416.089 585.553,344.036 598.398,344.036 596.527,359.753 
				817.842,314.496 804.033,434.046 			"/>
			<polyline style="opacity:0.3;fill:#8B326B;" points="781.389,338.2 660.016,386.714 746.946,412.874 781.389,364.212 			"/>
			<polygon style="opacity:0.3;fill:#8B326B;" points="-36.085,357.749 9.983,337.573 163.301,384.25 188.738,375.212 
				253.345,396.136 253.345,407.11 350.114,440.032 332.157,466.968 			"/>
		</g>
		<g style="clip-path:url(#SVGID_00000091006930902669373000000016753142845862599350_);">
			<path style="fill:#18244E;" d="M658.859,263.633c0,0-6.845-0.919-3.821-8.764C663.209,257.374,658.859,263.633,658.859,263.633z"
				/>
			<path style="fill:#18244E;" d="M614.293,319.07c0,0-5.405,4.3-8.968-3.315C612.792,311.597,614.293,319.07,614.293,319.07z"/>
			<path style="fill:#18244E;" d="M638.817,187.851c0,0-2.137,11.932-15.661,6.027C628.176,179.744,638.817,187.851,638.817,187.851
				z"/>
			<path style="fill:#18244E;" d="M680.876,242.811c0,0,1.33-6.777,8.979-3.286C686.862,247.53,680.876,242.811,680.876,242.811z"/>
			<path style="fill:#18244E;" d="M626.307,149.386c0,0,6.744-1.49,6.6,6.917C624.374,156.759,626.307,149.386,626.307,149.386z"/>
			<polyline style="fill:#18244E;" points="633.439,389.699 654.389,166.089 648.071,166.089 619.525,382.502 			"/>
			<polyline style="fill:#18244E;" points="638.817,292.126 662.602,266.512 669.717,250 667.684,250 659.756,264.479 
				641.867,277.894 			"/>
			<path style="fill:#18244E;" d="M659.756,254.721l4.472,4.53c0,0,16.466-2.588,17.686-8.845c1.22-6.256-4.472-1.985-4.472-1.985
				s3.862-11.996-1.22-13.013c-5.082-1.016-7.725,6.912-7.725,6.912s-2.846-2.643-4.269,0.203
				C660.163,241.914,655.894,249.029,659.756,254.721z"/>
			<path style="fill:#18244E;" d="M646.698,195.105l-6.614-11.123c0,0-9.32-0.601-3.127-9.317c-7.395,0-19.42,0-19.42,0
				s4.375-20.197,21.211-15.962c-12.292-13.013,0.07-27.632,12.16-21.92c9.491-8.109,36.146,11.098,18.524,33.971
				c4.625,9.62-8.086,13.829-8.086,13.829h-11.941"/>
			<path style="fill:#333E63;" d="M643.091,156.323c0,0,0.733-9.009,12.139-5.638C660.176,140.732,637.31,140.018,643.091,156.323z"
				/>
			<polyline style="fill:#18244E;" points="643.091,244.192 635.575,226.008 636.957,226.008 642.494,235.319 			"/>
			<polyline style="fill:#18244E;" points="643.091,375.184 650.907,327.684 648.803,325.88 636.957,372.779 			"/>
			<polyline style="fill:#18244E;" points="626.456,349.329 617.236,308.443 614.831,308.443 624.451,364.212 			"/>
			<path style="fill:#18244E;" d="M620.643,311.276h-10.835c0,0-5.5-4.937,1.114-4.937c-1.202-15.332,8.111-15.032,10.219-7.215
				C627.458,293.712,629.462,309.299,620.643,311.276z"/>
			<polyline style="fill:#18244E;" points="620.643,327.684 623.85,317.388 619.525,322.536 			"/>
		</g>
		<g style="clip-path:url(#SVGID_00000091006930902669373000000016753142845862599350_);">
			<g>
				<polyline style="fill:#18244E;" points="682.275,389.699 699.237,231.258 650.25,101.87 621.142,88.478 622.607,85.758 
					648.266,94.782 624.649,31.909 629.613,31.759 705.246,215.857 672.315,-8.432 679.296,-8.642 721.759,218.857 716.602,389.573 
									"/>
				<polygon style="fill:#333E63;" points="707.871,254.869 702.571,254.869 689.855,364.212 696.234,362.396 				"/>
				<polyline style="fill:#18244E;" points="689.663,378.853 679.533,293.103 674.268,295.036 679.525,379.159 				"/>
				<polyline style="fill:#18244E;" points="707.871,166.089 754.893,49.002 754.597,39.169 707.871,144.454 				"/>
			</g>
			<polyline style="fill:#18244E;" points="716.342,277.144 731.382,241.359 729.122,241.359 716.342,262.903 			"/>
			<path style="fill:#18244E;" d="M598.398,88.488h80.698c0,0-2.124-6.021-11.68-5.557c11.68-13.43-9.859-16.209-12.893-8.336
				c-12.06-17.135-27.987-4.364-22.678,4.765C614.708,75.55,598.398,88.488,598.398,88.488z"/>
			<path style="fill:#18244E;" d="M731.382,39.169H577.95c0,0,10.589-8.503,23.37-5.216c-3.651-17.527,11.32-9.859,11.32-9.859
				s8.764-16.432,27.021-3.652c12.78-9.859,21.909,1.096,21.909,1.096s17.893-9.129,32.133,11.32
				C710.865,22.025,731.382,39.169,731.382,39.169z"/>
			<polyline style="fill:#18244E;" points="667.412,131.083 668.872,107.348 671.45,107.348 671.45,145.689 			"/>
			<path style="fill:#18244E;" d="M631.992-2.927c0,0-8.19,2.191-10.851,9.859c24.726,0,44.445,0,44.445,0s-4.747,2.921-4.747,6.938
				c9.494,0,97.861,0,97.861,0l2.556-27.751L631.992-2.927z"/>
			<path style="fill:#18244E;" d="M731.382,99.343c0,0-13.644-3.824-10.485-18.622c1.995-0.166,5.005,0,5.005,0
				s-7.333-12.47-4.174-15.796s9.654,4.157,9.654,4.157s-0.735-13.993,8.802-16.461c9.537-2.468,17.126,9.311,17.126,9.311
				l-13.967,22.945c0,0,8.646-3.159,9.644,3.492C753.985,95.02,731.382,99.343,731.382,99.343z"/>
			<path style="fill:#18244E;" d="M736.028,102.629c0,0,1.33-6.777,8.979-3.286C742.014,107.348,736.028,102.629,736.028,102.629z"
				/>
			<path style="fill:#18244E;" d="M720.139,79.278c0,0-6.764,1.398-6.506-7.006C722.172,71.932,720.139,79.278,720.139,79.278z"/>
			<path style="fill:#18244E;" d="M611.43,40.202c0,0,2.182,6.553-6.194,7.283C603.896,39.045,611.43,40.202,611.43,40.202z"/>
			<path style="fill:#18244E;" d="M614.715,44.378c0,0,10.443,5.856,0.555,16.565C603.705,51.684,614.715,44.378,614.715,44.378z"/>
			<path style="fill:#18244E;" d="M694.775,29.12c0,0-1.204-6.801,7.189-6.303C702.06,31.362,694.775,29.12,694.775,29.12z"/>
			<path style="fill:#18244E;" d="M612.378,37.325c0,0,7.759,17.221,33.476,9.533c3.104,6.429,10.863,3.698,10.42-1.995
				c5.764,6.873,46.465,21.868,75.109-5.693"/>
			<polygon style="fill:#333E63;" points="704.59,248.422 707.871,248.422 710.242,221.08 			"/>
			<polyline style="fill:#333E63;" points="705.416,171.803 689.855,91.877 701.965,172.225 			"/>
			<polyline style="fill:#18244E;" points="720.351,132.051 736.028,126.519 736.028,123.37 721.759,127.711 			"/>
		</g>
		<g style="clip-path:url(#SVGID_00000091006930902669373000000016753142845862599350_);">
			<polyline style="fill:#18244E;" points="43.844,396.136 12.917,-8.899 23.377,-8.899 60.803,396.136 			"/>
			<polyline style="fill:#18244E;" points="36.86,150.849 63.543,125.331 76.586,30.633 72.049,30.633 56.723,117.959 30.74,133.27 
							"/>
			<path style="fill:#18244E;" d="M-5.04,11.054h41.9c0,0-8.979,13.219,4.988,16.586c-1.995,10.35,50.611,2.993,50.611,2.993
				S44.441,45.191,43.71,72.906c39.042,0,129.661,0,129.661,0s-7.228-18.098-34.957-9.049c27.14-28.861,17.164-45.57-5.781-43.201
				c0.998-15.588-22.307-38.454-56.047-29.555C42.846,0-15.997-16.88-15.997-16.88"/>
			<path style="fill:#18244E;" d="M-6.037,45.792c0,0,32.252-1.765,41.565,21.154c-16.599,0-50.851,0-50.851,0"/>
			<polyline style="fill:#18244E;" points="86.742,60.935 107.692,129.771 86.742,327.3 86.742,392.146 101.706,392.146 
				97.217,325.305 114.675,126.778 92.459,60.935 			"/>
			<polyline style="fill:#18244E;" points="104.741,105.989 118.06,63.901 124.579,63.901 111.033,115.983 			"/>
			<polyline style="fill:#18244E;" points="104.741,177.38 83.43,145.947 86.742,145.947 106.872,168.323 			"/>
			<polyline style="fill:#18244E;" points="100.708,274.09 152.69,199.223 158.55,171.519 154.821,171.519 148.587,198.348 
				100.708,262.199 			"/>
			<polyline style="fill:#18244E;" points="143.76,209.581 134.204,186.81 136.504,186.81 145.353,206.63 			"/>
			<path style="fill:#18244E;" d="M138.451,176.546h56.453c0,0,4.778-9.025-7.433-3.539c10.618-18.405-1.026-36.102-20.333-18.228
				c-4.973-2.301-16.83,6.725-15.945,12.565C142.875,167.874,138.451,176.546,138.451,176.546z"/>
			<path style="fill:#18244E;" d="M145.353,186.81h-26.899c0,0,4.955-6.725,12.211-3.362
				C130.841,179.731,148.964,175.079,145.353,186.81z"/>
			<path style="fill:#18244E;" d="M100.708,221.319c0,0-15.62-0.704-19.112-8.581c-3.492-7.877,2.702-10.177,2.702-10.177
				s-9.556-4.079-6.902-8.941c2.655-4.862,13.45,3.455,13.45,3.455s-4.424-13.981,3.186-16.458
				c7.61-2.478,9.025,37.517,9.025,37.517"/>
			<path style="fill:#18244E;" d="M30.74,382.565c1.473-1.353-7.549-63.607-7.549-63.607l-4.06,2.356l1.804,61.251"/>
			<polyline style="fill:#18244E;" points="38.98,268.77 15.071,222.805 9.658,186.81 12.917,186.81 19.132,221.319 36.86,246.493 
							"/>
			<path style="fill:#18244E;" d="M-11.995,193.619H36.86c0,0-1.038-23.855-17.729-18.955c-6.767-23.069-28.689-24.43-34.87-5.028
				C-21.92,189.037-11.995,193.619-11.995,193.619z"/>
			<path style="fill:#18244E;" d="M43.943,266.178h24.36C68.303,266.178,43.943,229.186,43.943,266.178z"/>
			<path style="fill:#18244E;" d="M147.07,166.045c0,0-6.845-0.919-3.821-8.764C151.42,159.786,147.07,166.045,147.07,166.045z"/>
			<path style="fill:#18244E;" d="M53.381,116.34c0,0-6.845-0.919-3.821-8.764C57.731,110.081,53.381,116.34,53.381,116.34z"/>
			<path style="fill:#18244E;" d="M58.147,245.283c0,0-5.405,4.3-8.968-3.316C56.646,237.81,58.147,245.283,58.147,245.283z"/>
			<path style="fill:#18244E;" d="M208.542,161.483c0,0-2.137,11.932-15.661,6.027C197.9,153.376,208.542,161.483,208.542,161.483z"
				/>
			<path style="fill:#18244E;" d="M134.732,87.402c0,0-11.971,1.906-10.842-12.808C138.889,74.686,134.732,87.402,134.732,87.402z"
				/>
			<path style="fill:#18244E;" d="M151.402,55.542c0,0-1.056-16.044,18.239-12.757C167.69,62.584,151.402,55.542,151.402,55.542z"/>
			<polyline style="fill:#18244E;" points="30.512,107.576 41.466,85.544 36.86,85.544 26.381,102.457 			"/>
			<path style="fill:#18244E;" d="M92.459,233.188l-5.717-8.228C86.742,224.96,79.58,233.421,92.459,233.188z"/>
			<polyline style="fill:#18244E;" points="89.994,361.176 76.931,336.493 81.233,336.493 92.459,350.762 			"/>
			<polyline style="fill:#18244E;" points="99.518,299.14 118.453,274.09 114.675,274.09 95.151,294.709 			"/>
			<path style="fill:#333E63;" d="M126.185,32.896c0,0,13.943,6.455,8.004,20.657C154.292,38.364,140.128,19.986,126.185,32.896z"/>
			<polygon style="fill:#333E63;" points="103.057,229.076 98.557,283.405 96.491,280.776 			"/>
			<polygon style="fill:#333E63;" points="35.812,174.876 49.179,344.036 52.079,344.036 36.86,176.546 			"/>
		</g>
		<g style="clip-path:url(#SVGID_00000091006930902669373000000016753142845862599350_);">
			<path style="fill:#18244E;" d="M-55.126,355.234c0,0,73.824,9.447,163.61,28.402c89.786,18.955,193.539,52.874,193.539,52.874
				l50.879-17.332l17.902,5.93c0,0,136.73-48.455,251.457-54.441c114.727-5.986,190.23,25.205,190.23,25.205
				s25.257,165.341,22.264,164.343c-2.993-0.998-896.863-19.952-896.863-19.952"/>
			<polyline style="fill:#18244E;" points="378.211,429.706 369.579,403.813 371.961,403.813 384.461,425.111 391.306,423.456 
				380.443,384.765 382.675,384.765 396.068,422.266 			"/>
			<polyline style="fill:#333E63;" points="-21.954,366.768 257.335,440.032 -17.766,407.11 -17.766,429.627 313.534,457.727 
				-30.978,457.727 			"/>
			<path style="fill:#333E63;" d="M403.319,448.013c0,0,121.016-52.268,243.108-45.135c5.986,29.93,27.841,26.749,27.841,26.749
				L403.319,448.013z"/>
			<polygon style="fill:#333E63;" points="435.649,460.247 650.227,475.647 646.655,439.807 			"/>
			<polyline style="fill:#18244E;" points="579.114,383.723 580.533,359.753 576.294,341.906 579.114,341.906 583.641,359.753 
				586.466,379.159 			"/>
			<path style="fill:#18244E;" d="M592.965,377.225c0.282-0.848,12.36-26.693,12.36-26.693h2.339l-7.536,26.693"/>
			<path style="fill:#18244E;" d="M592.965,354.338h24.158c0,0,1.262-6.2-3.395-4.936c1.841-11.169-8.979-16.537-13.599-7.496
				C596.92,340.776,586.749,344.965,592.965,354.338z"/>
			<polyline style="fill:#18244E;" points="215.481,416.51 219.719,400.959 217.6,400.959 211.243,412.247 			"/>
			<polyline style="fill:#18244E;" points="122.24,390.222 119.409,350.762 116.062,351.795 116.062,389.092 			"/>
			<polyline style="fill:#18244E;" points="125.094,392.146 129.629,379.504 129.629,392.397 			"/>
			<path style="fill:#18244E;" d="M135.531,355.234h-28.729c0,0-0.385-6.818,5.831-6.4c0.725-11.141,17.518-10.707,15.54,1.495
				C134.769,347.63,135.531,355.234,135.531,355.234z"/>
			<polyline style="fill:#18244E;" points="119.151,366.768 127.362,353.491 129.629,353.491 119.409,370.887 			"/>
		</g>
		<g style="clip-path:url(#SVGID_00000091006930902669373000000016753142845862599350_);">
			<path style="fill:#13153A;" d="M560.469,512.287c0.721-2.485-24.189-50.522,44.515-55.491
				c-16.391-43.896-2.94-86.964,54.878-60.46c10.221-30.644,39.067-19.049,39.789,14.908c17.308-25.675,73.557-15.736,73.557-15.736
				l22.683,127.458"/>
			<path style="opacity:0.3;fill:#333E63;" d="M647.913,531.472c0,0-4.767-159.168,155.477-93.219s-15.836,151.925-15.836,151.925"
				/>
			<path style="fill:#13153A;" d="M609.768,459.957c0,0-19.32-0.662-19.32-20.72C611.625,442.587,609.768,459.957,609.768,459.957z"
				/>
			<path style="fill:#13153A;" d="M96.698,469.593c0,0-7.061-25.2,18.819-33.416C119.871,464.874,96.698,469.593,96.698,469.593z"/>
			<path style="fill:#13153A;" d="M699.348,413.332c0,0-7.775-17.699,10.302-26.39C715.808,407.479,699.348,413.332,699.348,413.332
				z"/>
			<path style="fill:#13153A;" d="M67.376,452.885c0,0-5.523-29.596,24.97-36.375C94.411,449.839,67.376,452.885,67.376,452.885z"/>
			<path style="fill:#13153A;" d="M590.447,454.48c0,0-11.117,10.757-22.666-0.389C581.478,443.758,590.447,454.48,590.447,454.48z"
				/>
			<path style="fill:#13153A;" d="M-11.978,392.584c0,0,83.494-6.339,83.638,54.717c26.1-14.314,30.77,7.634,30.77,7.634
				s49.122-18.893,59.466,49.943c10.343,68.836-205.005,9.386-205.005,9.386"/>
			<path style="opacity:0.3;fill:#333E63;" d="M-28.073,418.762c0,0,68-19.257,99.237,54.846
				c25.327-8.356,58.466,20.528,53.416,39.25C93.404,628.43-7.903,535.368-7.903,535.368"/>
		</g>
	</g>
	<g>
		
			<ellipse transform="matrix(0.2298 -0.9732 0.9732 0.2298 290.3225 548.3197)" style="fill:#FFFFFF;" cx="491.577" cy="90.741" rx="65.463" ry="65.463"/>
		
			<ellipse transform="matrix(0.2298 -0.9732 0.9732 0.2298 290.3225 548.3197)" style="fill:#FFFFFF;" cx="491.577" cy="90.741" rx="39.905" ry="39.905"/>
	</g>
	<g>
		<path style="fill:#FFFFFF;" d="M375.332,97.588h-0.664c0,3.364-2.727,6.091-6.091,6.091v0.664c3.364,0,6.091,2.727,6.091,6.091
			h0.664c0-3.364,2.727-6.091,6.091-6.091v-0.664C378.059,103.679,375.332,100.952,375.332,97.588z"/>
		<path style="fill:#FFFFFF;" d="M550.12,18.855h-0.664c0,3.364-2.727,6.091-6.091,6.091v0.664c3.364,0,6.091,2.727,6.091,6.091
			h0.664c0-3.364,2.727-6.091,6.091-6.091v-0.664C552.847,24.946,550.12,22.219,550.12,18.855z"/>
		<path style="fill:#FFFFFF;" d="M561.49,157.738h-0.664c0,3.364-2.727,6.091-6.091,6.091v0.664c3.364,0,6.091,2.727,6.091,6.091
			h0.664c0-3.364,2.727-6.091,6.091-6.091v-0.664C564.217,163.828,561.49,161.101,561.49,157.738z"/>
		<path style="fill:#FFFFFF;" d="M305.012,87.963h-0.434c0,2.2-1.784,3.984-3.984,3.984v0.434c2.2,0,3.984,1.784,3.984,3.984h0.434
			c0-2.2,1.784-3.984,3.984-3.984v-0.434C306.796,91.947,305.012,90.163,305.012,87.963z"/>
		<path style="fill:#FFFFFF;" d="M357.732,180.857h-0.331c0,1.679-1.361,3.04-3.04,3.04v0.331c1.679,0,3.04,1.361,3.04,3.04h0.331
			c0-1.679,1.361-3.04,3.04-3.04v-0.331C359.093,183.897,357.732,182.536,357.732,180.857z"/>
		<path style="fill:#FFFFFF;" d="M411.402,27.427h-0.331c0,1.679-1.361,3.04-3.04,3.04v0.331c1.679,0,3.04,1.361,3.04,3.04h0.331
			c0-1.679,1.361-3.04,3.04-3.04v-0.331C412.763,30.467,411.402,29.106,411.402,27.427z"/>
		<path style="fill:#FFFFFF;" d="M612.544,108.752h-0.331c0,1.679-1.361,3.04-3.04,3.04v0.332c1.679,0,3.04,1.361,3.04,3.04h0.331
			c0-1.679,1.361-3.04,3.04-3.04v-0.332C613.905,111.792,612.544,110.431,612.544,108.752z"/>
		<path style="fill:#FFFFFF;" d="M437.702,161.888h-0.434c0,2.2-1.784,3.984-3.984,3.984v0.434c2.2,0,3.984,1.784,3.984,3.984h0.434
			c0-2.2,1.784-3.984,3.984-3.984v-0.434C439.486,165.872,437.702,164.088,437.702,161.888z"/>
		<path style="fill:#FFFFFF;" d="M257.552,14.654h-0.434c0,2.2-1.784,3.984-3.984,3.984v0.434c2.2,0,3.984,1.784,3.984,3.984h0.434
			c0-2.2,1.784-3.984,3.984-3.984v-0.434C259.336,18.638,257.552,16.854,257.552,14.654z"/>
		<path style="fill:#FFFFFF;" d="M213.293,33.124h-0.434c0,2.2-1.784,3.984-3.984,3.984v0.434c2.2,0,3.984,1.784,3.984,3.984h0.434
			c0-2.2,1.784-3.984,3.984-3.984v-0.434C215.077,37.107,213.293,35.324,213.293,33.124z"/>
		<path style="fill:#FFFFFF;" d="M184.958,217.118h-0.434c0,2.2-1.784,3.984-3.984,3.984v0.434c2.2,0,3.984,1.784,3.984,3.984h0.434
			c0-2.2,1.784-3.984,3.984-3.984v-0.434C186.742,221.102,184.958,219.318,184.958,217.118z"/>
	</g>
</g>
</svg>
